<svg width="180" height="48" viewBox="0 0 250 70" fill="none" xmlns="http://www.w3.org/2000/svg">
  <g>
    <path d="M49.8 60.5H30.4L59.9 10.5H79.3L49.8 60.5Z" fill="#2A2F23"/>
    <path d="M93.3 60.5L93.3 10.5H107.7V48.8H134.6V60.5H93.3Z" fill="#2A2F23"/>
    <rect x="124.3" y="10.5" width="14.4" height="50" fill="#2A2F23"/>
    <path d="M88.2 53.3C88.2 55.2 87.3 56.8 85.5 58.1C83.7 59.3 81.2 60 78.1 60C76.6 60 75.3 59.9 74.1 59.6C72.9 59.3 71.8 59 70.9 58.6C70 58.2 69.1 57.7 68.3 57.2V50.8C69.7 51.7 71.2 52.4 72.8 53C74.5 53.5 76 53.8 77.5 53.8C78.4 53.8 79.1 53.7 79.5 53.4C79.9 53.1 80.1 52.7 80.1 52.3C80.1 51.9 80 51.6 79.7 51.3C79.4 51 78.9 50.7 78.3 50.4C77.7 50.1 76.8 49.7 75.7 49.2C74.1 48.5 72.8 47.8 71.9 47.1C71 46.4 70.3 45.6 69.8 44.7C69.3 43.8 69.1 42.6 69.1 41.2C69.1 39.3 70 37.8 71.8 36.6C73.6 35.4 76 34.9 79 34.9C81.2 34.9 83.1 35.1 84.8 35.6C86.5 36.1 88.2 36.8 89.8 37.7L87 43.3C85.7 42.5 84.4 41.9 83.1 41.5C81.8 41.1 80.6 40.9 79.4 40.9C78.7 40.9 78.1 41 77.8 41.3C77.5 41.5 77.3 41.9 77.3 42.3C77.3 42.6 77.4 42.9 77.6 43.1C77.8 43.3 78.2 43.6 78.8 43.9C79.4 44.2 80.2 44.5 81.3 45C83.1 45.7 84.5 46.4 85.5 47.1C86.5 47.8 87.2 48.6 87.7 49.5C88.1 50.3 88.2 51.5 88.2 53.3Z" fill="#2A2F23"/>
    <path d="M153 10.5H165.3L184 60.5H167.1L164.8 54H153.1L150.8 60.5H134.5L153 10.5ZM158.8 25.9L155.8 42.5H162.2L159.1 25.9H158.8Z" fill="#2A2F23"/>
    <path d="M183.8 60.5V10.5H198.2V48.8H225.1V60.5H183.8Z" fill="#2A2F23"/>
    <path d="M225.2 60.5V10.5H246.7V22.3H239.5V60.5H225.2Z" fill="#2A2F23"/>
    <path d="M246.7 60.5V10.5H250V60.5H246.7Z" fill="#2A2F23"/>
    <path d="M103.5 0C103.5 0 88.9 0 81.1 0C73.2 0 72.9 3.1 72.9 3.1L70.7 8.7H103.5V0Z" fill="#2A2F23"/>
    <path d="M103.5 8.7V0H81.1C73.2 0 72.9 3.1 72.9 3.1L70.7 8.7H103.5Z" fill="#2A2F23"/>
    <path d="M76.1 60.5V69.2H108.9V60.5H76.1Z" fill="#2A2F23"/>
    <path fill-rule="evenodd" clip-rule="evenodd" d="M88.1 3.5C90.7 3.5 92.8 2.7 92.8 1.8C92.8 0.8 90.7 0 88.1 0C85.6 0 83.5 0.8 83.5 1.8C83.5 2.7 85.6 3.5 88.1 3.5Z" fill="#2A2F23"/>
    <rect x="87.3" y="3.5" width="1.7" height="63.9" fill="#2A2F23"/>
    <rect x="83.9" y="3.5" width="1.7" height="63.9" fill="#2A2F23"/>
    <rect x="90.7" y="3.5" width="1.7" height="63.9" fill="#2A2F23"/>
    <path fill-rule="evenodd" clip-rule="evenodd" d="M88.1 67.5C90.7 67.5 92.8 68.3 92.8 69.3C92.8 70.2 90.7 71 88.1 71C85.6 71 83.5 70.2 83.5 69.3C83.5 68.3 85.6 67.5 88.1 67.5Z" fill="#2A2F23"/>
  </g>
</svg>